<svg id="Layer_1" data-name="Layer 1" xmlns="http://www.w3.org/2000/svg" viewBox="0 0 286 99"><defs><style>.cls-1{fill:#fefefe;}.cls-2{fill:#1c1c1c;}</style></defs><path class="cls-1" d="M28.43,27.83H10.73v12H31.5v7.4h-30V2.48H31.44V10H10.73V20.61h17.7Z"/><path class="cls-1" d="M46.13,39.82H65.7v7.4H36.91V2.48h9.22Z"/><path class="cls-1" d="M97.91,27.83H80.21v12H101v7.4H71V2.48h29.93V10H80.21V20.61h17.7Z"/><path class="cls-1" d="M141.51,32.32a15.84,15.84,0,0,1-5.33,11.37q-4.81,4.14-12.68,4.15-8.59,0-13.53-5.8T105,26.14V23.41A26.71,26.71,0,0,1,107.31,12a17,17,0,0,1,6.5-7.55,18.23,18.23,0,0,1,9.82-2.62q7.74,0,12.47,4.14t5.47,11.65h-9.22c-.22-2.89-1-5-2.41-6.28s-3.49-2-6.31-2a7.83,7.83,0,0,0-6.9,3.31Q114.44,16,114.38,23v3.38q0,7.25,2.2,10.6t6.92,3.35q4.27,0,6.38-2c1.4-1.31,2.21-3.32,2.41-6Z"/><path class="cls-1" d="M180.35,10h-13.7V47.22h-9.22V10H143.91V2.48h36.44Z"/><path class="cls-1" d="M202.17,30.84h-7.35V47.22h-9.21V2.48h16.62q7.94,0,12.23,3.53t4.3,10a13.8,13.8,0,0,1-2,7.64,13.48,13.48,0,0,1-6,4.87l9.68,18.28v.43h-9.89Zm-7.35-7.46h7.44a7.6,7.6,0,0,0,5.38-1.77,6.31,6.31,0,0,0,1.9-4.87,6.8,6.8,0,0,0-1.79-5Q206,9.95,202.23,10h-7.41Z"/><path class="cls-1" d="M235.57,47.22h-9.22V2.48h9.22Z"/><path class="cls-1" d="M279.23,32.32a15.8,15.8,0,0,1-5.33,11.37q-4.8,4.14-12.67,4.15-8.61,0-13.54-5.8t-4.93-15.9V23.41A26.86,26.86,0,0,1,245,12a17.11,17.11,0,0,1,6.5-7.55,18.23,18.23,0,0,1,9.82-2.62q7.74,0,12.48,4.14t5.47,11.65h-9.22q-.34-4.34-2.41-6.28c-1.39-1.3-3.49-2-6.32-2a7.85,7.85,0,0,0-6.9,3.31Q252.17,16,252.1,23v3.38q0,7.25,2.2,10.6t6.93,3.35c2.84,0,5-.65,6.37-2s2.21-3.32,2.42-6Z"/><path class="cls-2" d="M12.06,60.63l.26,3.55A11.15,11.15,0,0,1,21.44,60q6.12,0,8.4,4.84A10.9,10.9,0,0,1,39.37,60c3.43,0,6,1,7.67,3s2.52,5,2.52,9V92.33h-8.5V72.11A6.09,6.09,0,0,0,40,68.17c-.7-.83-1.94-1.24-3.72-1.24A5.27,5.27,0,0,0,31,70.56l0,21.77H22.58V72.14a5.92,5.92,0,0,0-1.09-4,4.71,4.71,0,0,0-3.69-1.23,5.48,5.48,0,0,0-5.21,3V92.33H4.12V60.63Z"/><path class="cls-2" d="M74.43,92.33a9.54,9.54,0,0,1-.85-2.84,10.25,10.25,0,0,1-8,3.43,11.23,11.23,0,0,1-7.72-2.7,8.68,8.68,0,0,1-3.07-6.8,9,9,0,0,1,3.74-7.73Q62.28,73,69.34,73h3.89V71.15a5.19,5.19,0,0,0-1.13-3.52,4.41,4.41,0,0,0-3.55-1.32,5.07,5.07,0,0,0-3.36,1A3.48,3.48,0,0,0,64,70.15H55.51a8.49,8.49,0,0,1,1.7-5.1A11.22,11.22,0,0,1,62,61.38,17.5,17.5,0,0,1,69,60q5.86,0,9.31,3a10.31,10.31,0,0,1,3.44,8.28V85A15.15,15.15,0,0,0,83,91.83v.5Zm-7-5.89a7.39,7.39,0,0,0,3.46-.83,5.54,5.54,0,0,0,2.34-2.25V77.92H70.07q-6.36,0-6.77,4.39l0,.5a3.42,3.42,0,0,0,1.11,2.61A4.36,4.36,0,0,0,67.43,86.44Z"/><path class="cls-1" d="M101.42,86.09a5.52,5.52,0,0,0,3.8-1.29,4.51,4.51,0,0,0,1.53-3.43h7.94a10.91,10.91,0,0,1-1.76,5.91,11.67,11.67,0,0,1-4.73,4.16,14.91,14.91,0,0,1-6.64,1.48q-6.8,0-10.72-4.33T86.91,76.66V76.1q0-7.32,3.9-11.69T101.5,60A13.32,13.32,0,0,1,111,63.43a12,12,0,0,1,3.65,9h-7.94a5.81,5.81,0,0,0-1.53-4,5.65,5.65,0,0,0-8.33.61c-1,1.43-1.51,3.77-1.51,7v.88q0,4.89,1.5,7A5.14,5.14,0,0,0,101.42,86.09Z"/><path class="cls-1" d="M137.89,92.33a9.54,9.54,0,0,1-.85-2.84,10.27,10.27,0,0,1-8,3.43,11.25,11.25,0,0,1-7.72-2.7,8.67,8.67,0,0,1-3.06-6.8A9,9,0,0,1,122,75.69Q125.73,73,132.79,73h3.9V71.15a5.24,5.24,0,0,0-1.13-3.52A4.43,4.43,0,0,0,132,66.31a5.06,5.06,0,0,0-3.35,1,3.48,3.48,0,0,0-1.22,2.81H119a8.55,8.55,0,0,1,1.69-5.1,11.31,11.31,0,0,1,4.81-3.67,17.47,17.47,0,0,1,7-1.34q5.87,0,9.3,3a10.29,10.29,0,0,1,3.45,8.28V85a15,15,0,0,0,1.26,6.82v.5Zm-7-5.89a7.39,7.39,0,0,0,3.46-.83,5.54,5.54,0,0,0,2.34-2.25V77.92h-3.16q-6.36,0-6.77,4.39l0,.5a3.42,3.42,0,0,0,1.11,2.61A4.34,4.34,0,0,0,130.89,86.44Z"/><path class="cls-1" d="M169.5,68.57a22.29,22.29,0,0,0-3-.23q-4.82,0-6.3,3.25V92.33h-8.47V60.63h8l.23,3.78Q162.47,60,167,60a8.69,8.69,0,0,1,2.64.39Z"/><path class="cls-2" d="M183.3,85.5h15.5v6.83H172.49V87.17L187.4,67.46H172.93V60.63h25.4v5Z"/><path class="cls-2" d="M204,52.43a4.18,4.18,0,0,1,1.28-3.14,5.5,5.5,0,0,1,6.93,0,4.47,4.47,0,0,1,0,6.3,5.43,5.43,0,0,1-6.88,0A4.15,4.15,0,0,1,204,52.43Zm9,39.9h-8.5V60.63H213Z"/><path class="cls-2" d="M227.8,60.63l.27,3.66A11.06,11.06,0,0,1,237.18,60q5,0,7.5,3t2.52,8.85V92.33h-8.47V72.06a5.49,5.49,0,0,0-1.17-3.91,5.25,5.25,0,0,0-3.9-1.22,5.81,5.81,0,0,0-5.36,3V92.33h-8.47V60.63Z"/><path class="cls-2" d="M268.2,92.92a15.56,15.56,0,0,1-11.35-4.28q-4.38-4.27-4.38-11.4v-.82a19.17,19.17,0,0,1,1.85-8.54,13.53,13.53,0,0,1,5.23-5.8,14.64,14.64,0,0,1,7.72-2q6.5,0,10.23,4.11t3.74,11.63v3.45H261.05a7.89,7.89,0,0,0,2.48,5,7.49,7.49,0,0,0,5.23,1.88,9.14,9.14,0,0,0,7.65-3.55l4.16,4.66a12.73,12.73,0,0,1-5.16,4.21A17,17,0,0,1,268.2,92.92Zm-1-26a5.28,5.28,0,0,0-4.09,1.71,8.84,8.84,0,0,0-2,4.88h11.78v-.67a6.33,6.33,0,0,0-1.52-4.37A5.48,5.48,0,0,0,267.24,66.87Z"/></svg>