<?xml version="1.0" encoding="utf-8"?>
<!-- Generator: Adobe Illustrator 25.2.1, SVG Export Plug-In . SVG Version: 6.00 Build 0)  -->
<svg version="1.1" id="Layer_1" xmlns="http://www.w3.org/2000/svg" xmlns:xlink="http://www.w3.org/1999/xlink" x="0px" y="0px"
	 viewBox="0 0 605 227.99" style="enable-background:new 0 0 605 227.99;" xml:space="preserve">
<style type="text/css">
	.st0{fill:#4E4F4D;}
</style>
<g>
	<path class="st0" d="M67.74,78.06H31.28v24.69h42.79V118H12.29V25.83h61.66v15.38H31.28v21.97h36.46V78.06z"/>
	<path class="st0" d="M104.21,102.75h40.33V118H85.21V25.83h18.99V102.75z"/>
	<path class="st0" d="M210.87,78.06h-36.46v24.69h42.79V118h-61.79V25.83h61.66v15.38h-42.67v21.97h36.46V78.06z"/>
	<path class="st0" d="M300.7,87.3c-0.72,9.92-4.38,17.73-10.98,23.42c-6.61,5.7-15.31,8.55-26.11,8.55
		c-11.82,0-21.11-3.98-27.89-11.93c-6.77-7.95-10.16-18.87-10.16-32.76v-5.63c0-8.86,1.56-16.67,4.68-23.42
		c3.12-6.75,7.59-11.93,13.39-15.54c5.8-3.61,12.54-5.41,20.23-5.41c10.64,0,19.2,2.85,25.7,8.55c6.5,5.7,10.26,13.7,11.27,23.99
		h-18.99c-0.47-5.95-2.12-10.26-4.97-12.95c-2.85-2.68-7.19-4.02-13.01-4.02c-6.33,0-11.07,2.27-14.21,6.81
		c-3.14,4.54-4.76,11.58-4.84,21.11v6.96c0,9.96,1.51,17.24,4.53,21.84c3.02,4.6,7.78,6.9,14.28,6.9c5.87,0,10.24-1.34,13.14-4.02
		c2.89-2.68,4.55-6.83,4.97-12.44H300.7z"/>
	<path class="st0" d="M380.72,41.22h-28.23V118H333.5V41.22h-27.85V25.83h75.08V41.22z"/>
	<path class="st0" d="M425.67,84.26h-15.13V118h-18.99V25.83h34.25c10.89,0,19.29,2.43,25.2,7.28c5.91,4.85,8.86,11.71,8.86,20.57
		c0,6.29-1.36,11.53-4.08,15.73c-2.72,4.2-6.85,7.54-12.38,10.03l19.94,37.67V118h-20.38L425.67,84.26z M410.54,68.88h15.32
		c4.77,0,8.46-1.21,11.08-3.64c2.62-2.43,3.92-5.77,3.92-10.03c0-4.35-1.23-7.76-3.7-10.26c-2.47-2.49-6.26-3.74-11.36-3.74h-15.26
		V68.88z"/>
	<path class="st0" d="M494.48,118h-18.99V25.83h18.99V118z"/>
	<path class="st0" d="M584.44,87.3c-0.72,9.92-4.38,17.73-10.98,23.42c-6.61,5.7-15.31,8.55-26.11,8.55
		c-11.82,0-21.11-3.98-27.89-11.93c-6.77-7.95-10.16-18.87-10.16-32.76v-5.63c0-8.86,1.56-16.67,4.68-23.42
		c3.12-6.75,7.59-11.93,13.39-15.54c5.8-3.61,12.54-5.41,20.23-5.41c10.64,0,19.2,2.85,25.7,8.55c6.5,5.7,10.26,13.7,11.27,23.99
		h-18.99c-0.47-5.95-2.12-10.26-4.97-12.95c-2.85-2.68-7.19-4.02-13.01-4.02c-6.33,0-11.07,2.27-14.21,6.81
		c-3.14,4.54-4.76,11.58-4.84,21.11v6.96c0,9.96,1.51,17.24,4.53,21.84c3.02,4.6,7.78,6.9,14.28,6.9c5.87,0,10.24-1.34,13.14-4.02
		c2.89-2.68,4.55-6.83,4.97-12.44H584.44z"/>
</g>
<g>
	<path class="st0" d="M34.01,145.63l0.54,7.3c4.63-5.67,10.88-8.51,18.77-8.51c8.41,0,14.18,3.32,17.32,9.96
		c4.59-6.64,11.13-9.96,19.62-9.96c7.08,0,12.35,2.06,15.81,6.19c3.46,4.13,5.19,10.33,5.19,18.62v41.71h-17.5v-41.65
		c0-3.7-0.72-6.41-2.17-8.12c-1.45-1.71-4-2.57-7.67-2.57c-5.23,0-8.85,2.5-10.86,7.48l0.06,44.85H55.68v-41.59
		c0-3.78-0.75-6.52-2.23-8.21c-1.49-1.69-4.02-2.53-7.6-2.53c-4.95,0-8.53,2.05-10.74,6.16v46.17H17.66v-65.31H34.01z"/>
	<path class="st0" d="M162.51,210.94c-0.81-1.57-1.39-3.52-1.75-5.85c-4.22,4.71-9.72,7.06-16.48,7.06c-6.4,0-11.7-1.85-15.9-5.55
		c-4.2-3.7-6.31-8.37-6.31-14c0-6.92,2.57-12.23,7.7-15.93c5.13-3.7,12.54-5.57,22.24-5.61h8.03v-3.74c0-3.02-0.78-5.43-2.32-7.24
		c-1.55-1.81-3.99-2.72-7.33-2.72c-2.94,0-5.24,0.7-6.91,2.11c-1.67,1.41-2.5,3.34-2.5,5.79h-17.44c0-3.78,1.17-7.28,3.5-10.5
		c2.33-3.22,5.63-5.74,9.9-7.57c4.26-1.83,9.05-2.75,14.36-2.75c8.05,0,14.43,2.02,19.16,6.07c4.73,4.04,7.09,9.73,7.09,17.05v28.31
		c0.04,6.2,0.91,10.89,2.6,14.06v1.03H162.51z M148.09,198.81c2.57,0,4.95-0.57,7.12-1.72c2.17-1.15,3.78-2.69,4.83-4.62v-11.23
		h-6.52c-8.73,0-13.38,3.02-13.94,9.05l-0.06,1.03c0,2.17,0.76,3.96,2.29,5.37C143.34,198.1,145.43,198.81,148.09,198.81z"/>
	<path class="st0" d="M218.1,198.08c3.22,0,5.83-0.88,7.85-2.66c2.01-1.77,3.06-4.12,3.14-7.06h16.36
		c-0.04,4.43-1.25,8.48-3.62,12.16c-2.38,3.68-5.62,6.54-9.75,8.57c-4.13,2.03-8.68,3.05-13.67,3.05c-9.34,0-16.7-2.97-22.09-8.9
		c-5.39-5.94-8.09-14.13-8.09-24.6v-1.15c0-10.06,2.68-18.09,8.03-24.08c5.35-6,12.7-8.99,22.03-8.99c8.17,0,14.72,2.32,19.65,6.97
		c4.93,4.65,7.43,10.83,7.51,18.56h-16.36c-0.08-3.4-1.13-6.16-3.14-8.28c-2.01-2.12-4.67-3.19-7.97-3.19
		c-4.07,0-7.13,1.48-9.2,4.44c-2.07,2.96-3.11,7.77-3.11,14.42v1.81c0,6.73,1.03,11.57,3.08,14.51
		C210.8,196.61,213.92,198.08,218.1,198.08z"/>
	<path class="st0" d="M293.25,210.94c-0.81-1.57-1.39-3.52-1.75-5.85c-4.22,4.71-9.72,7.06-16.48,7.06c-6.4,0-11.7-1.85-15.9-5.55
		c-4.2-3.7-6.31-8.37-6.31-14c0-6.92,2.57-12.23,7.7-15.93c5.13-3.7,12.54-5.57,22.24-5.61h8.03v-3.74c0-3.02-0.78-5.43-2.32-7.24
		c-1.55-1.81-3.99-2.72-7.33-2.72c-2.94,0-5.24,0.7-6.91,2.11c-1.67,1.41-2.5,3.34-2.5,5.79h-17.44c0-3.78,1.17-7.28,3.5-10.5
		c2.33-3.22,5.63-5.74,9.9-7.57c4.26-1.83,9.05-2.75,14.36-2.75c8.05,0,14.43,2.02,19.16,6.07c4.73,4.04,7.09,9.73,7.09,17.05v28.31
		c0.04,6.2,0.91,10.89,2.6,14.06v1.03H293.25z M278.82,198.81c2.57,0,4.95-0.57,7.12-1.72c2.17-1.15,3.78-2.69,4.83-4.62v-11.23
		h-6.52c-8.73,0-13.38,3.02-13.94,9.05l-0.06,1.03c0,2.17,0.76,3.96,2.29,5.37C274.07,198.1,276.17,198.81,278.82,198.81z"/>
	<path class="st0" d="M358.37,161.99c-2.38-0.32-4.47-0.48-6.28-0.48c-6.6,0-10.92,2.23-12.98,6.7v42.73h-17.44v-65.31h16.48
		l0.48,7.79c3.5-6,8.35-8.99,14.55-8.99c1.93,0,3.74,0.26,5.43,0.78L358.37,161.99z"/>
	<path class="st0" d="M386.8,196.87h31.93v14.06h-54.2v-10.62l30.72-40.62h-29.82v-14.06h52.33v10.28L386.8,196.87z"/>
	<path class="st0" d="M429.53,128.73c0-2.62,0.88-4.77,2.63-6.46c1.75-1.69,4.13-2.53,7.15-2.53c2.98,0,5.35,0.84,7.12,2.53
		c1.77,1.69,2.66,3.84,2.66,6.46c0,2.66-0.9,4.83-2.69,6.52c-1.79,1.69-4.16,2.53-7.09,2.53c-2.94,0-5.3-0.84-7.09-2.53
		C430.43,133.56,429.53,131.39,429.53,128.73z M448.06,210.94h-17.5v-65.31h17.5V210.94z"/>
	<path class="st0" d="M478.48,145.63l0.54,7.54c4.67-5.83,10.92-8.75,18.77-8.75c6.92,0,12.07,2.03,15.45,6.1
		c3.38,4.07,5.11,10.14,5.19,18.23v42.19h-17.44v-41.77c0-3.7-0.81-6.39-2.41-8.06c-1.61-1.67-4.29-2.5-8.03-2.5
		c-4.91,0-8.59,2.09-11.05,6.28v46.05h-17.44v-65.31H478.48z"/>
	<path class="st0" d="M561.71,212.14c-9.58,0-17.37-2.94-23.39-8.81c-6.02-5.87-9.02-13.7-9.02-23.48v-1.69
		c0-6.56,1.27-12.42,3.8-17.59c2.53-5.17,6.13-9.15,10.77-11.95c4.65-2.8,9.95-4.19,15.9-4.19c8.93,0,15.96,2.82,21.09,8.45
		c5.13,5.63,7.7,13.62,7.7,23.96v7.12h-41.59c0.56,4.27,2.26,7.69,5.1,10.26c2.84,2.58,6.43,3.86,10.78,3.86
		c6.72,0,11.97-2.43,15.75-7.3l8.57,9.6c-2.62,3.7-6.16,6.59-10.62,8.66C572.09,211.11,567.14,212.14,561.71,212.14z M559.72,158.49
		c-3.46,0-6.27,1.17-8.42,3.52c-2.15,2.34-3.53,5.7-4.13,10.06h24.26v-1.4c-0.08-3.88-1.13-6.88-3.14-9S563.42,158.49,559.72,158.49
		z"/>
</g>
</svg>
